<?xml version="1.0" standalone="no"?>
<!DOCTYPE svg PUBLIC "-//W3C//DTD SVG 20010904//EN"
 "http://www.w3.org/TR/2001/REC-SVG-20010904/DTD/svg10.dtd">
<svg version="1.0" xmlns="http://www.w3.org/2000/svg"
 width="736.000000pt" height="736.000000pt" viewBox="0 0 736.000000 736.000000"
 preserveAspectRatio="xMidYMid meet">

<g transform="translate(0.000000,736.000000) scale(0.100000,-0.100000)"
fill="#000000" stroke="none">
<path d="M0 3680 l0 -3680 3680 0 3680 0 0 3680 0 3680 -3680 0 -3680 0 0
-3680z m2766 1918 c4 -7 3 -8 -4 -4 -7 4 -12 5 -12 2 0 -3 15 -12 33 -20 63
-26 317 -345 317 -398 0 -6 -18 8 -40 31 -22 22 -43 41 -46 41 -7 0 61 -79 84
-97 9 -7 13 -13 9 -13 -12 0 -130 61 -162 84 -54 38 -96 57 -114 51 -45 -14
-223 -249 -290 -382 -91 -182 -131 -329 -131 -484 0 -233 55 -351 387 -822 26
-38 47 -73 45 -78 -1 -5 4 -9 12 -9 8 0 16 -7 20 -15 8 -21 2 -19 -57 18 -71
46 -294 268 -349 347 -107 154 -187 343 -209 490 -20 137 -7 352 29 485 55
202 118 338 241 521 75 112 202 264 221 264 5 0 12 -5 16 -12z m2025 -72 c91
-71 160 -147 139 -154 -17 -6 -11 -20 13 -25 26 -7 121 -171 161 -278 40 -107
76 -259 76 -321 0 -59 -12 -76 -26 -35 -6 18 -8 14 -11 -21 -3 -31 -8 -42 -17
-39 -9 4 -17 -14 -25 -61 -15 -84 -12 -122 8 -114 11 4 13 -2 7 -36 -5 -34 -3
-42 9 -42 8 0 15 -4 15 -10 0 -5 9 -10 19 -10 30 0 33 -29 11 -111 -27 -106
-86 -241 -137 -317 -24 -36 -43 -67 -43 -70 0 -8 -83 -96 -95 -101 -7 -3 -7 0
0 10 6 8 0 3 -12 -11 -13 -14 -23 -32 -23 -41 0 -16 -131 -150 -190 -195 -44
-32 -139 -94 -145 -94 -15 0 7 34 123 186 205 270 234 319 307 520 40 109 75
283 75 368 -1 188 -140 492 -329 714 -56 67 -59 67 -226 -29 -69 -39 -128 -69
-131 -66 -10 10 6 44 63 129 87 131 255 328 279 328 6 0 53 -33 105 -74z
m-934 -192 c106 -72 106 -72 239 -184 236 -197 344 -329 459 -558 63 -126 82
-210 49 -207 -11 0 -25 4 -32 9 -8 5 -12 1 -12 -12 0 -18 -4 -18 -40 -9 -22 6
-41 9 -43 6 -5 -6 9 -116 21 -160 5 -21 6 -43 1 -50 -6 -10 -9 -5 -9 15 0 16
-3 27 -6 23 -5 -4 10 -111 22 -159 1 -5 2 -11 3 -15 0 -4 7 2 15 13 14 19 15
19 22 -1 4 -11 12 -26 18 -33 8 -11 11 -10 17 5 5 11 8 -2 10 -37 2 -53 2 -54
8 -15 4 26 9 36 14 27 5 -7 13 -9 19 -6 8 5 9 1 5 -10 -4 -10 -15 -47 -24 -84
-18 -69 -117 -273 -159 -329 -13 -17 -24 -34 -24 -38 0 -16 -135 -211 -202
-290 -70 -84 -156 -171 -187 -189 -18 -11 -9 3 46 74 73 96 190 324 230 450
33 104 85 351 90 434 6 80 -4 147 -17 126 -8 -12 -10 -12 -14 0 -3 8 -19 57
-36 107 -46 138 -137 290 -276 461 -66 80 -278 298 -305 312 -15 9 -42 -11
-166 -124 -320 -290 -423 -426 -502 -662 -114 -341 -17 -757 259 -1112 44 -56
75 -102 69 -102 -7 0 -51 39 -99 88 -193 195 -421 545 -478 732 -26 86 -46
301 -38 403 13 163 43 249 149 417 128 205 271 357 510 543 65 51 151 118 190
149 40 32 80 58 89 58 10 0 61 -30 115 -66z m-2385 -279 c107 -22 244 -78 341
-139 123 -78 280 -206 251 -206 -6 0 -15 5 -22 12 -7 7 -12 9 -12 5 0 -3 -31
7 -69 23 -69 30 -316 95 -382 102 l-34 3 2 -87 c3 -142 57 -329 135 -468 88
-156 251 -335 394 -431 121 -81 322 -212 349 -228 17 -10 16 -10 -10 -5 -145
30 -366 125 -534 229 -212 131 -366 324 -461 577 -52 140 -71 250 -71 419 0
140 6 189 25 201 15 10 14 10 98 -7z m4652 -12 c-3 -10 -14 -36 -24 -58 -9
-22 -25 -57 -34 -78 -23 -54 -20 -118 8 -176 13 -27 27 -67 31 -88 4 -21 11
-40 15 -43 16 -10 -12 -115 -51 -193 -22 -44 -59 -109 -83 -146 -48 -75 -142
-174 -157 -166 -5 4 -9 2 -9 -3 0 -18 -90 -96 -201 -174 -130 -91 -364 -210
-517 -263 -57 -19 -109 -35 -115 -35 -7 0 31 24 83 53 126 69 355 216 455 292
44 33 84 59 89 57 12 -4 37 19 31 28 -3 5 10 28 28 52 75 98 145 207 169 263
51 117 80 242 82 350 l1 100 -115 -1 c-106 -2 -125 -5 -239 -43 -68 -23 -126
-39 -128 -37 -16 15 225 157 307 181 14 4 61 25 105 48 81 40 226 95 257 96
12 1 16 -4 12 -16z m-4947 -630 c42 -54 119 -150 170 -214 51 -65 93 -122 93
-128 0 -6 5 -11 12 -11 6 0 9 -3 6 -6 -4 -3 -15 -1 -27 5 -16 9 -22 8 -30 -6
-9 -17 -10 -17 -29 0 -18 17 -23 17 -56 3 -20 -8 -36 -22 -36 -31 0 -9 3 -14
8 -11 4 2 41 -2 82 -10 41 -8 94 -18 117 -23 45 -8 117 -56 108 -72 -4 -5 -2
-9 3 -9 6 0 54 -29 107 -65 54 -36 101 -65 105 -65 5 0 6 -9 3 -21 -6 -22 -11
-22 -208 -8 -11 1 -74 10 -140 21 -147 24 -211 53 -286 128 -119 118 -148 243
-119 505 12 101 15 115 29 115 6 0 45 -44 88 -97z m5198 -30 c-18 -60 -49
-151 -68 -204 l-35 -97 25 -11 c21 -10 26 -8 41 19 12 22 24 30 45 30 15 0 27
-2 27 -4 0 -2 3 -11 6 -20 5 -13 -1 -16 -25 -16 -17 0 -31 -3 -31 -6 0 -10 28
-34 39 -34 35 0 -20 -110 -86 -172 -62 -57 -112 -85 -123 -68 -9 15 -30 4 -30
-15 0 -34 -189 -65 -395 -65 -224 0 -237 9 -107 74 94 48 191 107 273 167 37
27 72 49 78 49 6 0 11 5 11 11 0 5 5 7 11 4 6 -4 8 -13 5 -20 -3 -9 11 -14 52
-17 61 -5 142 10 121 22 -7 5 -18 6 -26 3 -8 -3 -13 2 -13 15 0 13 -15 29 -41
44 l-41 24 40 45 c41 44 167 208 232 299 19 27 38 49 42 50 3 0 -9 -48 -27
-107z m-294 -366 c-10 -9 -11 -8 -5 6 3 10 9 15 12 12 3 -3 0 -11 -7 -18z
m481 -188 c-76 -162 -78 -170 -59 -181 9 -5 17 -16 17 -24 0 -11 4 -12 19 -5
10 6 21 8 23 5 3 -2 11 9 18 26 7 16 16 30 20 30 5 0 11 8 13 18 3 9 5 -1 6
-24 2 -79 -90 -337 -165 -464 -71 -118 -139 -205 -249 -316 -107 -107 -188
-169 -207 -158 -6 4 -8 3 -5 -2 9 -15 -107 -88 -203 -130 -179 -77 -313 -104
-516 -104 -124 0 -288 21 -307 39 -4 4 41 13 100 20 343 39 528 103 729 253
133 100 290 295 399 496 27 51 58 95 68 98 12 4 17 12 14 24 -3 13 0 17 9 13
8 -3 14 0 14 7 0 7 9 2 20 -11 11 -14 19 -18 20 -11 0 7 5 10 11 7 6 -4 8 -14
5 -22 -4 -9 -1 -13 6 -11 21 7 28 58 13 96 -11 24 -19 32 -31 28 -8 -3 -20 -6
-25 -6 -5 0 -9 -7 -9 -16 0 -11 -5 -14 -16 -10 -8 3 -23 -1 -32 -10 -10 -11
-17 -13 -20 -5 -5 16 -22 14 -22 -3 0 -51 -320 -191 -514 -225 -82 -15 -83
-15 -51 19 l29 30 -25 0 c-15 0 -34 -12 -49 -31 -14 -17 -36 -36 -50 -43 -22
-12 -174 -30 -345 -41 -161 -10 -419 -37 -495 -50 -140 -25 -331 -92 -496
-174 -85 -42 -154 -74 -154 -70 0 3 35 48 78 100 139 167 260 258 518 387 199
100 269 125 425 151 194 32 640 74 754 70 28 -1 57 1 65 4 8 3 35 8 60 11 201
28 433 136 576 269 32 30 60 54 62 52 2 -1 -19 -49 -46 -106z m-5501 -75 c156
-104 223 -119 639 -149 300 -22 677 -76 665 -95 -3 -4 4 -10 15 -13 11 -3 18
-1 15 3 -8 13 59 1 151 -26 45 -13 90 -24 100 -24 32 -1 130 -45 196 -90 103
-70 185 -141 315 -272 157 -157 179 -190 73 -105 -135 108 -236 172 -395 251
-89 44 -135 62 -135 53 0 -5 20 -15 145 -72 79 -37 330 -202 355 -235 3 -3 27
-21 53 -39 27 -18 46 -35 43 -38 -5 -5 -115 54 -126 67 -3 3 -63 31 -135 62
-266 115 -389 139 -890 174 -428 29 -472 37 -684 123 -105 43 -169 77 -306
161 -13 8 -27 11 -32 7 -24 -25 223 -401 351 -535 99 -103 200 -180 321 -243
162 -86 287 -117 552 -140 179 -15 189 -28 43 -53 -189 -31 -402 -17 -548 38
-50 18 -89 30 -86 25 8 -14 -15 -11 -76 10 -171 57 -388 209 -522 366 -179
210 -275 440 -298 710 -11 125 -13 239 -4 247 3 4 35 -23 72 -58 36 -36 96
-85 133 -110z m5289 -254 c0 -5 -2 -10 -4 -10 -3 0 -8 5 -11 10 -3 6 -1 10 4
10 6 0 11 -4 11 -10z m296 -491 c38 -11 92 -33 119 -48 28 -15 75 -38 106 -50
30 -13 66 -31 79 -41 l23 -17 -52 -13 c-39 -9 -51 -16 -51 -31 0 -18 20 -20
69 -7 45 11 8 -40 -138 -194 -75 -80 -182 -153 -208 -144 -10 4 -14 4 -10 0
20 -20 -150 -83 -288 -105 -104 -17 -408 -17 -505 0 -76 14 -205 50 -198 56 1
2 75 10 163 19 175 18 348 46 467 76 91 24 112 25 78 4 -16 -10 -18 -13 -5 -8
11 4 36 10 55 14 34 7 34 8 6 9 -35 1 -26 12 24 31 52 21 245 144 323 207 37
29 67 62 67 71 0 10 -33 43 -72 75 -88 69 -128 104 -128 112 0 7 1 7 76 -16z
m-5796 -22 c0 -8 -40 -45 -89 -83 -50 -38 -90 -74 -90 -81 -2 -33 274 -203
436 -269 103 -41 132 -57 86 -49 -21 4 -33 3 -33 -4 0 -6 17 -12 38 -12 20 -1
60 -2 87 -3 72 -2 509 -73 465 -75 -18 -1 -21 -4 -12 -10 27 -17 -160 -41
-314 -41 -251 0 -413 29 -559 99 -86 41 -219 128 -298 195 -51 42 -147 162
-147 183 0 25 143 90 304 138 93 27 126 31 126 12z m3161 -266 c49 -17 521
-213 594 -246 33 -16 102 -33 250 -66 79 -17 135 -22 272 -23 95 0 173 -4 173
-8 0 -5 -6 -8 -14 -8 -8 0 -45 -20 -83 -45 -37 -25 -89 -56 -115 -68 -27 -12
-48 -26 -48 -31 0 -4 8 -5 18 -1 9 4 31 12 47 17 17 5 63 26 102 46 40 19 76
33 79 30 22 -22 -166 -248 -268 -324 -69 -51 -255 -123 -352 -136 -90 -12
-272 -6 -356 12 -67 15 -181 66 -247 111 -184 126 -302 320 -303 495 0 87 9
136 24 131 6 -2 27 -30 46 -63 43 -73 214 -252 289 -301 63 -42 154 -78 223
-88 40 -6 47 -11 51 -35 5 -21 13 -29 37 -33 44 -9 44 -9 48 1 1 5 -11 15 -28
22 -16 7 -30 16 -30 21 0 10 15 13 137 29 148 19 268 57 268 86 0 15 -13 20
-70 29 -77 12 -172 41 -180 56 -4 5 -13 9 -22 9 -25 0 -254 114 -324 160 -130
88 -310 240 -282 240 5 0 34 -8 64 -19z m-586 -37 c-38 -32 -120 -86 -182
-119 -26 -14 -61 -34 -78 -43 -339 -192 -396 -216 -549 -230 -44 -4 -81 -12
-83 -18 -6 -17 148 -103 243 -136 192 -66 333 -41 514 92 80 59 227 209 265
270 16 25 30 39 33 32 7 -22 -62 -175 -95 -210 -7 -7 -13 -18 -13 -23 0 -17
19 0 35 31 11 22 57 50 81 50 6 0 -16 -64 -28 -80 -7 -10 -33 -46 -57 -80 -64
-91 -188 -210 -260 -249 -140 -74 -278 -105 -476 -105 -106 0 -130 3 -205 28
-144 48 -272 119 -332 185 -54 58 -158 242 -158 279 0 18 12 19 178 25 354 13
573 72 1127 302 74 30 77 30 40 -1z"/>
<path d="M2682 5528 c-7 -7 -12 -25 -12 -41 0 -15 -5 -37 -10 -48 -17 -31 6
-23 30 11 25 35 43 90 29 90 -5 0 -9 -6 -9 -12 0 -10 -2 -10 -8 -1 -6 10 -11
10 -20 1z"/>
<path d="M2700 5420 c0 -5 7 -10 16 -10 8 0 12 5 9 10 -3 6 -10 10 -16 10 -5
0 -9 -4 -9 -10z"/>
<path d="M2658 5357 c-7 -8 -18 -12 -24 -10 -6 2 -16 -8 -22 -22 -7 -15 -8
-25 -2 -25 15 0 87 69 73 70 -6 0 -18 -6 -25 -13z"/>
<path d="M2950 5296 c0 -3 9 -10 20 -16 11 -6 20 -8 20 -6 0 3 -9 10 -20 16
-11 6 -20 8 -20 6z"/>
<path d="M2643 5238 c-18 -29 -35 -62 -39 -72 -7 -19 -7 -19 18 0 14 10 24 22
21 27 -2 4 7 11 20 16 31 12 44 31 22 31 -13 0 -16 6 -11 25 4 14 5 25 3 25
-1 0 -17 -24 -34 -52z"/>
<path d="M4845 5367 c4 -9 2 -23 -4 -31 -9 -11 -5 -21 20 -47 17 -19 29 -26
26 -16 -4 9 -2 17 3 17 21 0 9 38 -21 66 -19 18 -28 23 -24 11z"/>
<path d="M5050 4876 c0 -8 4 -17 9 -20 5 -4 7 3 4 14 -6 23 -13 26 -13 6z"/>
<path d="M4960 4049 c0 -5 5 -7 10 -4 6 3 10 8 10 11 0 2 -4 4 -10 4 -5 0 -10
-5 -10 -11z"/>
<path d="M4941 4034 c0 -11 3 -14 6 -6 3 7 2 16 -1 19 -3 4 -6 -2 -5 -13z"/>
<path d="M4942 3888 c-7 -7 -12 -21 -12 -32 1 -18 3 -17 16 7 17 31 15 44 -4
25z"/>
<path d="M3738 5093 c7 -3 16 -2 19 1 4 3 -2 6 -13 5 -11 0 -14 -3 -6 -6z"/>
<path d="M3669 5063 c-13 -16 -12 -17 4 -4 16 13 21 21 13 21 -2 0 -10 -8 -17
-17z"/>
<path d="M4356 4857 c3 -10 9 -15 12 -12 3 3 0 11 -7 18 -10 9 -11 8 -5 -6z"/>
<path d="M4236 4769 c1 -17 10 -39 19 -48 16 -15 17 -14 10 19 -4 19 -12 41
-19 48 -10 10 -12 6 -10 -19z"/>
<path d="M4340 4434 c0 -6 7 -19 16 -30 14 -18 14 -18 3 6 -14 31 -19 36 -19
24z"/>
<path d="M4431 4204 c0 -11 3 -14 6 -6 3 7 2 16 -1 19 -3 4 -6 -2 -5 -13z"/>
<path d="M1640 4920 c0 -5 5 -10 11 -10 5 0 7 5 4 10 -3 6 -8 10 -11 10 -2 0
-4 -4 -4 -10z"/>
<path d="M1827 4849 c7 -7 15 -10 18 -7 3 3 -2 9 -12 12 -14 6 -15 5 -6 -5z"/>
<path d="M1780 4073 c0 -12 37 -46 75 -68 24 -13 26 -14 10 -1 -11 9 -35 30
-52 47 -18 18 -33 27 -33 22z"/>
<path d="M1831 3937 c2 -1 13 -9 24 -17 19 -14 19 -14 6 3 -7 9 -18 17 -24 17
-6 0 -8 -1 -6 -3z"/>
<path d="M5978 4933 c7 -3 16 -2 19 1 4 3 -2 6 -13 5 -11 0 -14 -3 -6 -6z"/>
<path d="M6006 4852 c-2 -4 -1 -14 5 -22 7 -12 9 -10 9 8 0 23 -5 28 -14 14z"/>
<path d="M5952 4790 c0 -14 2 -19 5 -12 2 6 2 18 0 25 -3 6 -5 1 -5 -13z"/>
<path d="M6012 4655 c0 -11 4 -33 8 -50 l8 -30 0 30 c0 17 -3 39 -8 50 l-9 20
1 -20z"/>
<path d="M5981 4554 c0 -11 3 -14 6 -6 3 7 2 16 -1 19 -3 4 -6 -2 -5 -13z"/>
<path d="M5809 4223 c-13 -16 -12 -17 4 -4 9 7 17 15 17 17 0 8 -8 3 -21 -13z"/>
<path d="M5744 4045 c-10 -8 -14 -15 -8 -15 6 0 17 7 24 15 16 19 9 19 -16 0z"/>
<path d="M1300 3965 c0 -5 9 -23 20 -40 11 -16 20 -23 20 -15 0 17 -39 71 -40
55z"/>
<path d="M1460 3946 c0 -2 7 -7 16 -10 8 -3 12 -2 9 4 -6 10 -25 14 -25 6z"/>
<path d="M1350 3874 c0 -11 34 -33 50 -33 10 0 8 6 -9 19 -23 20 -41 26 -41
14z"/>
<path d="M1745 3765 c17 -8 37 -14 45 -14 8 0 -1 7 -20 14 -46 18 -64 17 -25
0z"/>
<path d="M6143 3884 c-10 -14 -31 -40 -48 -56 l-30 -29 29 7 c23 6 27 4 21 -7
-7 -12 -6 -12 8 -1 18 15 53 99 44 108 -3 3 -13 -7 -24 -22z"/>
<path d="M6306 3601 c-3 -5 0 -14 8 -20 11 -9 15 -7 19 9 5 20 -16 29 -27 11z"/>
<path d="M5865 3550 c-8 -13 25 -13 45 0 12 8 9 10 -12 10 -15 0 -30 -4 -33
-10z"/>
<path d="M6150 3540 c-8 -5 -10 -10 -5 -10 6 0 17 5 25 10 8 5 11 10 5 10 -5
0 -17 -5 -25 -10z"/>
<path d="M6060 3510 c-25 -11 -38 -19 -30 -19 8 0 35 9 60 19 25 10 38 19 30
18 -8 0 -35 -8 -60 -18z"/>
<path d="M6422 3500 c0 -14 2 -19 5 -12 2 6 2 18 0 25 -3 6 -5 1 -5 -13z"/>
<path d="M5655 3470 c-21 -14 -25 -20 -12 -20 9 0 17 5 17 10 0 6 9 10 20 10
11 0 20 5 20 10 0 15 -11 12 -45 -10z"/>
<path d="M5538 3473 c6 -2 18 -2 25 0 6 3 1 5 -13 5 -14 0 -19 -2 -12 -5z"/>
<path d="M5339 3386 c-1 -9 -2 -22 -3 -28 -1 -7 10 -13 24 -14 14 0 24 -5 23
-11 -3 -15 21 -23 36 -13 18 11 4 50 -17 50 -10 0 -28 7 -40 16 -20 14 -22 14
-23 0z"/>
<path d="M5583 3373 c9 -2 23 -2 30 0 6 3 -1 5 -18 5 -16 0 -22 -2 -12 -5z"/>
<path d="M5655 3360 c28 -12 47 -12 40 0 -3 6 -18 10 -33 9 -24 0 -25 -1 -7
-9z"/>
<path d="M5520 3330 c20 -13 63 -13 55 0 -3 6 -21 10 -38 10 -24 0 -28 -3 -17
-10z"/>
<path d="M6317 3313 c-4 -3 -7 -13 -7 -22 1 -13 3 -13 11 2 11 19 8 33 -4 20z"/>
<path d="M6316 3215 c-9 -26 -7 -32 5 -12 6 10 9 21 6 23 -2 3 -7 -2 -11 -11z"/>
<path d="M2094 3511 c3 -5 21 -9 40 -8 45 1 35 17 -10 17 -19 0 -33 -4 -30 -9z"/>
<path d="M2080 3474 c-13 -7 -28 -22 -32 -33 -6 -16 -16 -21 -44 -21 -77 0
-24 -10 82 -15 93 -4 106 -3 92 8 -10 8 -15 17 -11 20 3 4 -3 10 -13 14 -10 4
-26 15 -34 24 -13 14 -18 15 -40 3z"/>
<path d="M2020 3370 c14 -4 39 -8 55 -8 29 0 29 0 5 8 -14 4 -38 8 -55 8 -29
0 -29 0 -5 -8z"/>
<path d="M2186 3343 c-15 -15 -4 -43 19 -49 29 -7 89 5 65 14 -8 2 -22 10 -30
17 -20 16 -47 25 -54 18z"/>
<path d="M2335 3320 c3 -5 8 -10 11 -10 2 0 4 5 4 10 0 6 -5 10 -11 10 -5 0
-7 -4 -4 -10z"/>
<path d="M2620 3306 c0 -2 7 -7 16 -10 8 -3 12 -2 9 4 -6 10 -25 14 -25 6z"/>
<path d="M2228 3273 c6 -2 18 -2 25 0 6 3 1 5 -13 5 -14 0 -19 -2 -12 -5z"/>
<path d="M1160 3161 c0 -11 4 -21 9 -21 18 0 21 18 6 30 -13 10 -15 9 -15 -9z"/>
<path d="M1560 2701 c0 -5 5 -13 10 -16 6 -3 10 -2 10 4 0 5 -4 13 -10 16 -5
3 -10 2 -10 -4z"/>
<path d="M2390 2550 c-8 -5 -10 -10 -5 -10 6 0 17 5 25 10 8 5 11 10 5 10 -5
0 -17 -5 -25 -10z"/>
<path d="M2448 2553 c6 -2 18 -2 25 0 6 3 1 5 -13 5 -14 0 -19 -2 -12 -5z"/>
<path d="M6603 2588 c4 -14 0 -30 -11 -43 -12 -14 -10 -14 10 4 28 24 34 61
10 61 -10 0 -12 -7 -9 -22z"/>
<path d="M790 2606 c0 -2 7 -6 15 -10 8 -3 15 -1 15 4 0 6 -7 10 -15 10 -8 0
-15 -2 -15 -4z"/>
<path d="M920 2555 c14 -8 30 -14 35 -14 6 0 -1 6 -15 14 -14 8 -29 14 -35 14
-5 0 1 -6 15 -14z"/>
<path d="M970 2540 c0 -6 7 -10 15 -10 8 0 15 2 15 4 0 2 -7 6 -15 10 -8 3
-15 1 -15 -4z"/>
<path d="M1075 2510 c11 -5 31 -8 45 -8 l25 0 -25 8 c-14 4 -34 8 -45 8 l-20
1 20 -9z"/>
<path d="M941 2496 c2 -2 15 -9 29 -15 24 -11 24 -11 6 3 -16 13 -49 24 -35
12z"/>
<path d="M1638 2403 c7 -3 16 -2 19 1 4 3 -2 6 -13 5 -11 0 -14 -3 -6 -6z"/>
<path d="M4680 2419 c0 -5 5 -7 10 -4 6 3 10 8 10 11 0 2 -4 4 -10 4 -5 0 -10
-5 -10 -11z"/>
<path d="M4905 2370 c3 -5 11 -10 16 -10 6 0 7 5 4 10 -3 6 -11 10 -16 10 -6
0 -7 -4 -4 -10z"/>
<path d="M4756 2329 c3 -5 11 -9 19 -9 7 0 16 -6 18 -12 4 -8 6 -7 6 3 1 10
-9 19 -24 21 -13 3 -22 1 -19 -3z"/>
<path d="M4872 2260 c-7 -11 -10 -26 -6 -32 4 -5 0 -14 -7 -19 -7 -4 -10 -11
-6 -15 15 -15 39 23 35 55 -3 30 -4 31 -16 11z"/>
<path d="M2710 2419 c0 -5 5 -7 10 -4 6 3 10 8 10 11 0 2 -4 4 -10 4 -5 0 -10
-5 -10 -11z"/>
<path d="M2616 2066 c10 -8 21 -12 24 -10 5 6 -21 24 -34 24 -6 0 -1 -6 10
-14z"/>
<path d="M2620 2002 c8 -5 26 -13 40 -16 17 -5 20 -4 10 2 -8 5 -26 13 -40 16
-17 5 -20 4 -10 -2z"/>
<path d="M2897 1953 c-3 -5 3 -20 14 -33 l20 -25 -3 29 c-3 29 -21 45 -31 29z"/>
</g>
</svg>
